<svg xmlns="http://www.w3.org/2000/svg" viewBox="0 0 32 32">
  <!-- 背景 -->
  <rect width="32" height="32" rx="4" fill="#4a90e2"/>
  
  <!-- カレンダーベース -->
  <rect x="4" y="8" width="24" height="20" rx="2" fill="white"/>
  
  <!-- カレンダーヘッダー -->
  <rect x="4" y="8" width="24" height="6" rx="2" fill="#f5a623"/>
  
  <!-- リング穴 -->
  <circle cx="10" cy="6" r="1.5" fill="#666"/>
  <circle cx="22" cy="6" r="1.5" fill="#666"/>
  
  <!-- 日付グリッド -->
  <rect x="6" y="16" width="2" height="2" fill="#4a90e2"/>
  <rect x="10" y="16" width="2" height="2" fill="#4a90e2"/>
  <rect x="14" y="16" width="2" height="2" fill="#4a90e2"/>
  <rect x="18" y="16" width="2" height="2" fill="#4a90e2"/>
  <rect x="22" y="16" width="2" height="2" fill="#4a90e2"/>
  <rect x="26" y="16" width="2" height="2" fill="#4a90e2"/>
  
  <rect x="6" y="20" width="2" height="2" fill="#4a90e2"/>
  <rect x="10" y="20" width="2" height="2" fill="#dc3545"/>
  <rect x="14" y="20" width="2" height="2" fill="#4a90e2"/>
  <rect x="18" y="20" width="2" height="2" fill="#28a745"/>
  <rect x="22" y="20" width="2" height="2" fill="#4a90e2"/>
  <rect x="26" y="20" width="2" height="2" fill="#4a90e2"/>
  
  <rect x="6" y="24" width="2" height="2" fill="#4a90e2"/>
  <rect x="10" y="24" width="2" height="2" fill="#4a90e2"/>
  <rect x="14" y="24" width="2" height="2" fill="#f5a623"/>
  <rect x="18" y="24" width="2" height="2" fill="#4a90e2"/>
  <rect x="22" y="24" width="2" height="2" fill="#4a90e2"/>
  <rect x="26" y="24" width="2" height="2" fill="#4a90e2"/>
</svg>